<svg width="56" height="23" viewBox="0 0 56 23" fill="none" xmlns="http://www.w3.org/2000/svg">
<path d="M55.6098 9.79909C55.494 9.62531 53.0031 5.91799 46.5732 7.36616C42.6921 8.23507 39.622 9.27775 37.9421 9.85702C37.7683 8.35092 36.4939 7.13445 34.9299 7.0186L11.3537 2.44237V1.11006C11.3537 0.588715 10.9482 0.183228 10.4268 0.183228H0.92683C0.405488 0.183228 0 0.588715 0 1.11006V19.5308C0 20.0522 0.405488 20.4576 0.92683 20.4576H10.4848C11.0061 20.4576 11.4116 20.0522 11.4116 19.5308V17.5613C15.0031 19.0095 25.2561 22.8906 30.5854 22.8906C37.0732 22.8906 54.5671 11.5369 55.3202 11.0735C55.7836 10.7838 55.8994 10.2046 55.6098 9.79909ZM1.79573 18.546V1.97896H9.55794V3.19542V16.171V18.546H1.79573ZM30.6433 21.0369C25.314 21.0369 14.0762 16.6345 11.4695 15.5339V4.29604L34.872 8.81433C35.625 8.81433 36.2622 9.45153 36.2622 10.2046C36.2622 10.9576 35.625 11.5948 34.872 11.5948H21.6647C21.1433 11.5948 20.7378 12.0003 20.7378 12.5217C20.7378 13.043 21.1433 13.4485 21.6647 13.4485H34.8141C35.9726 13.4485 36.9574 12.8692 37.5366 11.9424C38.5214 11.5369 42.1708 10.2046 47.0366 9.10397C50.5702 8.29299 52.5397 9.33567 53.4665 10.0887C49.7013 12.4637 35.7988 21.0369 30.6433 21.0369Z" fill="#12288B"/>
</svg>
